<?xml version="1.0" standalone="no"?>
<!DOCTYPE svg PUBLIC "-//W3C//DTD SVG 20010904//EN"
 "http://www.w3.org/TR/2001/REC-SVG-20010904/DTD/svg10.dtd">
<svg version="1.0" xmlns="http://www.w3.org/2000/svg"
 width="178.000000pt" height="183.000000pt" viewBox="0 0 178.000000 183.000000"
 preserveAspectRatio="xMidYMid meet">

<g transform="translate(0.000000,183.000000) scale(0.100000,-0.100000)"
fill="#000000" stroke="none">
<path d="M827 1125 c-15 -31 -27 -58 -27 -60 0 -3 29 -5 65 -5 36 0 65 3 65 6
0 10 -64 114 -70 114 -3 0 -18 -25 -33 -55z"/>
<path d="M641 796 c-61 -112 -111 -207 -111 -210 0 -3 151 -6 335 -6 184 0
335 3 335 8 0 4 -51 97 -114 207 l-113 200 -110 3 -110 3 -112 -205z"/>
<path d="M70 155 c0 -69 3 -85 15 -85 12 0 15 16 15 85 0 69 -3 85 -15 85 -12
0 -15 -16 -15 -85z"/>
<path d="M140 155 c0 -95 17 -117 22 -27 l3 57 39 -57 c55 -82 66 -77 66 27 0
69 -3 85 -15 85 -12 0 -15 -13 -15 -57 l0 -58 -38 57 c-52 81 -62 76 -62 -27z"/>
<path d="M310 155 c0 -69 3 -85 15 -85 11 0 15 11 15 40 0 36 3 40 25 40 16 0
25 6 25 15 0 9 -9 15 -25 15 -16 0 -25 6 -25 15 0 9 9 15 25 15 16 0 25 6 25
15 0 11 -11 15 -40 15 l-40 0 0 -85z"/>
<path d="M465 229 c-41 -24 -56 -68 -39 -114 8 -19 55 -45 84 -45 30 0 80 53
80 84 0 55 -78 102 -125 75z m79 -35 c21 -20 20 -58 0 -79 -25 -24 -75 -16
-93 16 -13 24 -13 29 2 53 20 30 66 35 91 10z"/>
<path d="M665 228 c-43 -23 -58 -74 -35 -117 13 -25 64 -45 95 -37 33 8 65 41
65 66 0 17 -7 20 -40 20 -29 0 -40 -4 -40 -15 0 -10 10 -15 26 -15 22 0 25 -2
14 -15 -13 -16 -47 -20 -75 -9 -28 11 -38 53 -19 82 15 22 21 24 65 19 53 -7
66 7 23 23 -32 13 -54 12 -79 -2z"/>
<path d="M820 155 l0 -85 45 0 c33 0 45 4 45 15 0 10 -10 15 -30 15 -25 0 -30
4 -30 25 0 21 5 25 30 25 20 0 30 5 30 15 0 10 -10 15 -30 15 -20 0 -30 5 -30
15 0 10 10 15 30 15 20 0 30 5 30 15 0 11 -12 15 -45 15 l-45 0 0 -85z"/>
<path d="M950 155 c0 -50 4 -85 10 -85 6 0 10 16 10 35 0 45 12 45 33 0 9 -19
24 -35 32 -35 13 0 12 6 -5 39 -16 33 -17 40 -5 45 9 3 15 18 15 35 0 34 -22
51 -64 51 -26 0 -26 0 -26 -85z m65 35 c0 -8 -10 -16 -22 -18 -18 -3 -23 2
-23 18 0 16 5 21 23 18 12 -2 22 -10 22 -18z"/>
<path d="M1103 158 c-32 -81 -35 -114 -6 -70 12 16 25 22 54 22 27 0 39 -4 39
-14 0 -16 18 -31 27 -22 9 9 -58 166 -71 166 -6 0 -26 -37 -43 -82z m67 -10
c0 -4 -12 -8 -26 -8 -14 0 -23 3 -21 8 2 4 7 16 11 27 7 20 8 20 22 1 8 -11
14 -23 14 -28z"/>
<path d="M1260 155 c0 -95 17 -117 22 -27 l3 57 38 -57 c54 -83 67 -78 67 27
0 68 -3 85 -15 85 -10 0 -15 -15 -17 -57 l-3 -57 -38 57 c-20 31 -42 57 -47
57 -6 0 -10 -36 -10 -85z"/>
<path d="M1474 230 c-28 -11 -54 -48 -54 -77 0 -12 11 -34 24 -50 19 -21 33
-28 64 -28 40 0 76 20 66 36 -3 5 -13 5 -24 -1 -29 -15 -65 -12 -83 8 -47 52
19 117 83 82 23 -12 36 3 16 19 -19 16 -68 22 -92 11z"/>
<path d="M1610 155 l0 -85 45 0 c33 0 45 4 45 15 0 10 -10 15 -30 15 -25 0
-30 4 -30 25 0 21 5 25 30 25 20 0 30 5 30 15 0 10 -10 15 -30 15 -20 0 -30 5
-30 15 0 10 10 15 30 15 20 0 30 5 30 15 0 11 -12 15 -45 15 l-45 0 0 -85z"/>
</g>
</svg>
